# xmcd CD database file
#
# Track frame offsets:
#	150
#	17990
#	29749
#	50393
#	72252
#	110947
#	126784
#	143870
#	161137
#	177924
#	199258
#	245778
#	295262
#	312196
#
# Disc length: 4357 seconds
#
# Revision: 0
# Processed by: cddbd v1.5.2PL0 Copyright (c) Steve Scherf et al.
# Submitted via: CDex 1.70beta2
#
DISCID=df11030e
DTITLE=Various Artist - Love Songs (Part 1)
DYEAR=2003
DGENRE=Blues
TTITLE0=Bernie Lyon - The Lov eFor A Woman
TTITLE1=The Platters - Only You
TTITLE2=Barry White - You`re The First,  Tha Last, My Everything
TTITLE3=Eros Ramazotti and Tina Turner - Cose Della Vita
TTITLE4=Don McLean - American Pie
TTITLE5=Tomm James and The Shondells - Crimson And Clover
TTITLE6=The Kelly Familiy - Roses Of Red
TTITLE7=Van Morrison and Them - It`s All Over Now, Baby Blue
TTITLE8=Rigtheous Brothers - You`ve Lost That Loving Feeling
TTITLE9=Santana - Samba Pa Ti
TTITLE10=Deep Purple - Child In Time
TTITLE11=Eros Ramazotti - Musica E
TTITLE12=The Kelly Family - An Angel
TTITLE13=Santana - Black Magic Woman
EXTD=YEAR: 2003
EXTT0=
EXTT1=
EXTT2=
EXTT3=
EXTT4=
EXTT5=
EXTT6=
EXTT7=
EXTT8=
EXTT9=
EXTT10=
EXTT11=
EXTT12=
EXTT13=
PLAYORDER=
